<svg width="98" height="19" viewBox="0 0 98 19" xmlns="http://www.w3.org/2000/svg">
<path d="M16.4998 0.204102H1.49998C0.671564 0.204102 0 0.875665 0 1.70408V16.7039C0 17.5323 0.671564 18.2039 1.49998 18.2039H16.4998C17.3282 18.2039 17.9998 17.5323 17.9998 16.7039V1.70408C17.9998 0.875665 17.3282 0.204102 16.4998 0.204102Z" fill="#2A89EF"/>
<path fill-rule="evenodd" clip-rule="evenodd" d="M15.0452 6.99965C15.3381 7.29254 15.3381 7.7674 15.0452 8.06029L9.15517 13.9504C8.86227 14.2433 8.3874 14.2433 8.09452 13.9504L3.7044 9.56027C3.41152 9.26738 3.41152 8.79252 3.7044 8.49963L5.29538 6.90865C5.58827 6.61577 6.06313 6.61577 6.35602 6.90865L8.62483 9.17748L12.3936 5.40867C12.6865 5.11579 13.1614 5.11579 13.4543 5.40867L15.0452 6.99965Z" fill="white"/>
<path d="M86.9913 16.3341V1.83411H90.2713V10.0341L93.8313 5.79411H97.6713L93.9313 9.97411L97.8113 16.3341H94.0713L91.7313 12.2341L90.2713 13.6541V16.3341H86.9913Z" fill="#080B12"/>
<path d="M80.7293 16.5741C80.036 16.5741 79.3826 16.5008 78.7693 16.3541C78.1693 16.2074 77.636 15.9941 77.1693 15.7141C76.716 15.4341 76.356 15.0874 76.0893 14.6741C75.836 14.2608 75.7093 13.7808 75.7093 13.2341C75.7093 13.1808 75.7093 13.1341 75.7093 13.0941C75.7093 13.0408 75.716 12.9941 75.7293 12.9541H78.8293C78.8293 12.9808 78.8293 13.0141 78.8293 13.0541C78.8293 13.0808 78.8293 13.1074 78.8293 13.1341C78.8426 13.4274 78.936 13.6741 79.1093 13.8741C79.296 14.0608 79.536 14.2008 79.8293 14.2941C80.1226 14.3741 80.4426 14.4141 80.7893 14.4141C81.0426 14.4141 81.3093 14.3874 81.5893 14.3341C81.8826 14.2808 82.1293 14.1874 82.3293 14.0541C82.5293 13.9208 82.6293 13.7274 82.6293 13.4741C82.6293 13.1941 82.5026 12.9808 82.2493 12.8341C82.0093 12.6874 81.6826 12.5674 81.2693 12.4741C80.8693 12.3674 80.436 12.2674 79.9693 12.1741C79.5026 12.0674 79.0293 11.9474 78.5493 11.8141C78.0826 11.6808 77.6493 11.5008 77.2493 11.2741C76.8626 11.0341 76.5493 10.7274 76.3093 10.3541C76.0693 9.98077 75.9493 9.50744 75.9493 8.93411C75.9493 8.32078 76.076 7.80078 76.3293 7.37411C76.596 6.93411 76.956 6.58077 77.4093 6.31411C77.8626 6.04744 78.3826 5.85411 78.9693 5.73411C79.5693 5.61411 80.2026 5.55411 80.8693 5.55411C81.4826 5.55411 82.0626 5.61411 82.6093 5.73411C83.1693 5.85411 83.6693 6.04077 84.1093 6.29411C84.5626 6.53411 84.916 6.84744 85.1693 7.23411C85.4226 7.60744 85.5493 8.04744 85.5493 8.55411C85.5493 8.62077 85.5426 8.69411 85.5293 8.77411C85.5293 8.84077 85.5293 8.88744 85.5293 8.91411H82.4493V8.75411C82.4493 8.52744 82.376 8.34077 82.2293 8.19411C82.0826 8.04744 81.8826 7.93411 81.6293 7.85411C81.376 7.76077 81.096 7.71411 80.7893 7.71411C80.5893 7.71411 80.3893 7.73411 80.1893 7.77411C80.0026 7.80077 79.8293 7.84744 79.6693 7.91411C79.5093 7.96744 79.376 8.04744 79.2693 8.15411C79.176 8.26077 79.1293 8.39411 79.1293 8.55411C79.1293 8.75411 79.216 8.92077 79.3893 9.05411C79.5626 9.17411 79.796 9.27411 80.0893 9.35411C80.396 9.43411 80.7293 9.52077 81.0893 9.61411C81.5826 9.72078 82.1026 9.83411 82.6493 9.95411C83.196 10.0608 83.7093 10.2208 84.1893 10.4341C84.6826 10.6341 85.076 10.9408 85.3693 11.3541C85.676 11.7541 85.8293 12.3074 85.8293 13.0141C85.8293 13.6808 85.696 14.2474 85.4293 14.7141C85.1626 15.1674 84.796 15.5341 84.3293 15.8141C83.8626 16.0808 83.3226 16.2741 82.7093 16.3941C82.096 16.5141 81.436 16.5741 80.7293 16.5741Z" fill="#080B12"/>
<path d="M67.6251 16.5741C67.1851 16.5741 66.7518 16.5274 66.3251 16.4341C65.9118 16.3541 65.5318 16.2074 65.1851 15.9941C64.8518 15.7674 64.5851 15.4608 64.3851 15.0741C64.1851 14.6874 64.0851 14.2008 64.0851 13.6141C64.0851 12.8541 64.2451 12.2341 64.5651 11.7541C64.8851 11.2741 65.3451 10.9008 65.9451 10.6341C66.5584 10.3541 67.2918 10.1608 68.1451 10.0541C69.0118 9.94744 69.9784 9.89411 71.0451 9.89411V9.23411C71.0451 8.92744 70.9851 8.67411 70.8651 8.47411C70.7451 8.26077 70.5651 8.10078 70.3251 7.99411C70.0984 7.87411 69.7917 7.81411 69.4051 7.81411C69.0584 7.81411 68.7518 7.85411 68.4851 7.93411C68.2318 8.01411 68.0384 8.13411 67.9051 8.29411C67.7717 8.44077 67.7051 8.62077 67.7051 8.83411V9.01411H64.5051C64.4918 8.94744 64.4851 8.89411 64.4851 8.85411C64.4851 8.80077 64.4851 8.73411 64.4851 8.65411C64.4851 8.02744 64.6784 7.48077 65.0651 7.01411C65.4651 6.54744 66.0317 6.18744 66.7651 5.93411C67.4984 5.68077 68.3851 5.55411 69.4251 5.55411C70.3984 5.55411 71.2451 5.67411 71.9651 5.91411C72.6984 6.15411 73.2718 6.52077 73.6851 7.01411C74.1118 7.50744 74.3251 8.15411 74.3251 8.95411V13.4541C74.3251 13.6808 74.3851 13.8608 74.5051 13.9941C74.6384 14.1274 74.7984 14.1941 74.9851 14.1941H75.6651V16.2141C75.5184 16.2808 75.2851 16.3541 74.9651 16.4341C74.6584 16.5274 74.2851 16.5741 73.8451 16.5741C73.3918 16.5741 72.9918 16.5141 72.6451 16.3941C72.3118 16.2874 72.0318 16.1341 71.8051 15.9341C71.5918 15.7208 71.4451 15.4741 71.3651 15.1941H71.2251C70.9717 15.4608 70.6718 15.7008 70.3251 15.9141C69.9918 16.1274 69.5984 16.2874 69.1451 16.3941C68.7051 16.5141 68.1984 16.5741 67.6251 16.5741ZM68.8451 14.3141C69.1651 14.3141 69.4584 14.2674 69.7251 14.1741C69.9917 14.0808 70.2184 13.9541 70.4051 13.7941C70.6051 13.6208 70.7584 13.4141 70.8651 13.1741C70.9851 12.9341 71.0451 12.6741 71.0451 12.3941V11.6941C70.2851 11.6941 69.6317 11.7474 69.0851 11.8541C68.5384 11.9608 68.1184 12.1274 67.8251 12.3541C67.5318 12.5808 67.3851 12.8674 67.3851 13.2141C67.3851 13.4674 67.4451 13.6808 67.5651 13.8541C67.6984 14.0141 67.8717 14.1341 68.0851 14.2141C68.2984 14.2808 68.5518 14.3141 68.8451 14.3141Z" fill="#080B12"/>
<path d="M57.2906 16.3341V5.5341H52.8306V2.5941H65.3306V5.5341H60.8706V16.3341H57.2906Z" fill="#080B12"/>
<path d="M46.7952 16.5741C45.6219 16.5741 44.6153 16.3741 43.7753 15.9741C42.9486 15.5741 42.3086 14.9674 41.8553 14.1541C41.4153 13.3274 41.1953 12.2941 41.1953 11.0541C41.1953 9.81411 41.4153 8.78744 41.8553 7.97411C42.3086 7.16077 42.9486 6.55411 43.7753 6.15411C44.6153 5.75411 45.6219 5.55411 46.7952 5.55411C47.9819 5.55411 48.9886 5.75411 49.8153 6.15411C50.6553 6.55411 51.2953 7.16077 51.7353 7.97411C52.1886 8.78744 52.4153 9.81411 52.4153 11.0541C52.4153 12.2941 52.1886 13.3274 51.7353 14.1541C51.2953 14.9674 50.6553 15.5741 49.8153 15.9741C48.9886 16.3741 47.9819 16.5741 46.7952 16.5741ZM46.7952 14.1941C47.3419 14.1941 47.7819 14.0874 48.1153 13.8741C48.4619 13.6608 48.7086 13.3541 48.8553 12.9541C49.0153 12.5408 49.0953 12.0341 49.0953 11.4341V10.6941C49.0953 10.0941 49.0153 9.58744 48.8553 9.17411C48.7086 8.76077 48.4619 8.45411 48.1153 8.25411C47.7819 8.04078 47.3419 7.93411 46.7952 7.93411C46.2619 7.93411 45.8219 8.04078 45.4753 8.25411C45.1419 8.45411 44.8953 8.76077 44.7353 9.17411C44.5886 9.58744 44.5153 10.0941 44.5153 10.6941V11.4341C44.5153 12.0341 44.5886 12.5408 44.7353 12.9541C44.8953 13.3541 45.1419 13.6608 45.4753 13.8741C45.8219 14.0874 46.2619 14.1941 46.7952 14.1941Z" fill="#080B12"/>
<path d="M32.7066 16.5741C30.4933 16.5741 28.8066 15.9874 27.6466 14.8141C26.5 13.6408 25.9266 11.8541 25.9266 9.45411C25.9266 7.86744 26.2066 6.55411 26.7666 5.51411C27.34 4.46078 28.1666 3.67411 29.2466 3.15411C30.34 2.62078 31.6533 2.35411 33.1866 2.35411C34.1066 2.35411 34.9733 2.46078 35.7866 2.67411C36.6 2.88744 37.32 3.20744 37.9466 3.63411C38.5733 4.04744 39.06 4.57411 39.4066 5.21411C39.7533 5.84078 39.9266 6.58078 39.9266 7.43411H36.4066C36.4066 7.07411 36.3266 6.75411 36.1666 6.47411C36.0066 6.18078 35.78 5.94078 35.4866 5.75411C35.2066 5.55411 34.88 5.40744 34.5066 5.31411C34.1333 5.20744 33.74 5.15411 33.3266 5.15411C32.7133 5.15411 32.1666 5.23411 31.6866 5.39411C31.22 5.55411 30.8333 5.80078 30.5266 6.13411C30.22 6.46745 29.9866 6.87411 29.8266 7.35411C29.68 7.83411 29.6066 8.39411 29.6066 9.03411V9.91411C29.6066 10.7674 29.74 11.4808 30.0066 12.0541C30.2733 12.6274 30.6733 13.0608 31.2066 13.3541C31.7533 13.6341 32.42 13.7741 33.2066 13.7741C33.82 13.7741 34.3666 13.6808 34.8466 13.4941C35.34 13.3074 35.7266 13.0408 36.0066 12.6941C36.3 12.3341 36.4466 11.9074 36.4466 11.4141V11.3141H32.7466V8.79411H39.9266V16.3341H37.8466L37.5066 14.8941C37.0933 15.2674 36.6466 15.5808 36.1666 15.8341C35.7 16.0874 35.18 16.2741 34.6066 16.3941C34.0466 16.5141 33.4133 16.5741 32.7066 16.5741Z" fill="#080B12"/>
</svg>
